<?xml version="1.0" ?><svg fill="#1A2D5A" data-name="Layer 1" id="Layer_1" viewBox="0 0 512 512" xmlns="http://www.w3.org/2000/svg"><title/><path d="M486.15,461.31,414.54,165.68A36.15,36.15,0,0,0,388,139L310.9,120a263.66,263.66,0,0,0-49.25-5.75v-9.17c0-5,3.2-9.47,8.37-11.71a35.32,35.32,0,0,0,20-41.52,34.87,34.87,0,0,0-24.69-24.69,35.41,35.41,0,0,0-30.78,6.16,35,35,0,0,0-13.65,27.8,5.65,5.65,0,0,0,11.29,0,23.72,23.72,0,0,1,9.27-18.88,24.31,24.31,0,0,1,21-4.15A23.41,23.41,0,0,1,279,54.66,24.11,24.11,0,0,1,265.53,83c-9.36,4.06-15.16,12.51-15.16,22.06v9.17A263.79,263.79,0,0,0,200.94,120L124,139a36.13,36.13,0,0,0-26.54,26.67L25.85,461.31a5.63,5.63,0,0,0,5,6.95l63.59,5.16a5.54,5.54,0,0,0,5.94-4.29L143,294.66l1.63,185.78A5.64,5.64,0,0,0,150.3,486H361.71a5.64,5.64,0,0,0,5.65-5.59L369,294.66l42.63,174.47a5.6,5.6,0,0,0,5.93,4.29l63.58-5.16a5.63,5.63,0,0,0,5-6.95ZM293.72,224l16,32.8-42.82,36.43,30.76-102.42c0-.09.05-.19.08-.28l13.58-45.21,20.51,52.23-35.7,19A5.64,5.64,0,0,0,293.72,224ZM256,290.24l-28.73-95.63h57.45Zm-40.13-73.75-35.72-19,20.51-52.23,44.44,147.91-42.82-36.42,16-32.8A5.64,5.64,0,0,0,215.88,216.49Zm88.22-86.36-16,53.2H223.89l-16-53.2A249.91,249.91,0,0,1,304.1,130.13ZM155.9,474.75l-.69-78.18c8.82,3.66,23.88,14.27,23.88,44.12a5.64,5.64,0,0,0,11.28,0c0-40.93,28.9-45.78,30.1-45.95a5.64,5.64,0,0,0,0-11.18c-1.23-.17-30.1-4.65-30.1-45.95a5.64,5.64,0,0,0-11.28,0c0,29.71-15.21,40.4-24,44.1l-1.17-132.33a5.64,5.64,0,0,0-11.12-1.29l-52.2,213.7-52.23-4.24,70.07-289.21A24.91,24.91,0,0,1,126.72,150l66.42-16.4-25.31,64.48a5.6,5.6,0,0,0,2.6,7l35.34,18.81-15.54,31.84a5.64,5.64,0,0,0,1.41,6.77l58.73,49.95V474.75Zm9.09-85.6a48.33,48.33,0,0,0,19.74-22.23,48.4,48.4,0,0,0,19.75,22.23,48.4,48.4,0,0,0-19.75,22.23A48.33,48.33,0,0,0,165,389.15Zm256.44,72.64-52.21-213.7a5.64,5.64,0,0,0-11.12,1.29l-2,225.37H261.65V312.46l58.73-49.95a5.66,5.66,0,0,0,1.41-6.77L306.25,223.9l35.32-18.81a5.62,5.62,0,0,0,2.61-7l-25.32-64.48L385.29,150a24.89,24.89,0,0,1,18.29,18.37l70.06,289.21Z"/><path d="M382.94,93c1.25.17,30.44,4.7,30.44,46.48a5.64,5.64,0,0,0,11.28,0c0-41.4,29.23-46.3,30.45-46.48a5.64,5.64,0,0,0,0-11.17c-1.25-.19-30.48-5.08-30.48-46.48a5.64,5.64,0,0,0-11.28,0c0,41.4-29.22,46.29-30.44,46.47a5.64,5.64,0,0,0,0,11.18ZM419,64.85a48.76,48.76,0,0,0,20.05,22.6A48.81,48.81,0,0,0,419,110.05a48.86,48.86,0,0,0-20-22.6A48.81,48.81,0,0,0,419,64.85Z"/></svg>