<?xml version="1.0" ?><svg data-name="Layer 1" fill="#1A2D5A" id="Layer_1" viewBox="0 0 100 100" xmlns="http://www.w3.org/2000/svg"><path d="M51,95H11a6,6,0,0,1-6-6V11a6.48,6.48,0,0,1,.12-1.19,6.22,6.22,0,0,1,.34-1.13l.23-.49A6,6,0,0,1,8.16,5.73a5.11,5.11,0,0,1,1.06-.45A6,6,0,0,1,11,5H89a6,6,0,0,1,4.14,1.66c.09.08.21.2.32.32a5.85,5.85,0,0,1,1.16,1.9A6,6,0,0,1,95,11V57a1,1,0,0,1-2,0,4,4,0,0,0-3.41-4A4.15,4.15,0,0,0,89,53H51a4,4,0,0,0-4,3.91A.53.53,0,0,1,47,57V89a4,4,0,0,0,4,4,1,1,0,0,1,0,2ZM11,7a4.19,4.19,0,0,0-1.2.17,3.25,3.25,0,0,0-.69.29,4,4,0,0,0-1,.71,3.66,3.66,0,0,0-.7.92l-.18.37a5.36,5.36,0,0,0-.21.73A4.61,4.61,0,0,0,7,11V89a4,4,0,0,0,4,4H46.53A6,6,0,0,1,45,89V57a1.72,1.72,0,0,1,0-.2A6,6,0,0,1,51,51H89a5.26,5.26,0,0,1,.89.07A5.94,5.94,0,0,1,93,52.54V11a4.08,4.08,0,0,0-.25-1.4A3.9,3.9,0,0,0,92,8.33l-.18-.18A4,4,0,0,0,89,7Z"/><path d="M46,81h-.15a25.45,25.45,0,0,1,3.92-50.59A25.3,25.3,0,0,1,74.91,51.85a1,1,0,0,1-1,1.15H51a4,4,0,0,0-4,3.91A.53.53,0,0,1,47,57V80a1,1,0,0,1-.35.76A1,1,0,0,1,46,81Zm3.77-48.6A23.45,23.45,0,0,0,45,78.77V57a1.72,1.72,0,0,1,0-.2A6,6,0,0,1,51,51H72.72A23.62,23.62,0,0,0,49.77,32.37Z"/><path d="M64,47a1,1,0,0,1-.83-.44,23.48,23.48,0,0,0-5.46-5.79,1,1,0,1,1,1.2-1.6,25.25,25.25,0,0,1,5.92,6.28A1,1,0,0,1,64,47Z"/><path d="M94,22H6a1,1,0,0,1-1-1V11a6.48,6.48,0,0,1,.12-1.19,6.58,6.58,0,0,1,.34-1.14l.21-.43.06-.11a5.92,5.92,0,0,1,1-1.38,6.12,6.12,0,0,1,1.4-1,5.92,5.92,0,0,1,1.06-.45A6.29,6.29,0,0,1,11,5H89a6,6,0,0,1,5.62,3.9A5.94,5.94,0,0,1,95,11V21A1,1,0,0,1,94,22ZM7,20H93V11a4.19,4.19,0,0,0-.25-1.41A4,4,0,0,0,89,7H11a4.11,4.11,0,0,0-1.2.18,5,5,0,0,0-.72.3,4.28,4.28,0,0,0-.93.7,4.44,4.44,0,0,0-.7.93l-.17.37a4.21,4.21,0,0,0-.22.73A4.61,4.61,0,0,0,7,11Z"/><path d="M50,17.77a4.27,4.27,0,1,1,4.27-4.27A4.27,4.27,0,0,1,50,17.77Zm0-6.54a2.27,2.27,0,1,0,2.27,2.27A2.27,2.27,0,0,0,50,11.23Z"/><path d="M89,95H51a6,6,0,0,1-6-6V57a1.72,1.72,0,0,1,0-.2A6,6,0,0,1,51,51H89a5.26,5.26,0,0,1,.89.07A6,6,0,0,1,95,57V89A6,6,0,0,1,89,95ZM47,57.09V89a4,4,0,0,0,4,4H89a4,4,0,0,0,4-4V57a4,4,0,0,0-3.41-4A4.15,4.15,0,0,0,89,53H51a4,4,0,0,0-4,3.91Z"/><path d="M66.17,82.12a1,1,0,0,1-.63-.22L55.79,74a1,1,0,1,1,1.26-1.55l9.75,7.89a1,1,0,0,1-.63,1.78Z"/><path d="M66.17,82.12a1,1,0,0,1-.68-1.73L82.9,64.15a1,1,0,0,1,1.36,1.46L66.85,81.85A1,1,0,0,1,66.17,82.12Z"/></svg>